<svg version="1.2" xmlns="http://www.w3.org/2000/svg" viewBox="0 0 400 400" width="400" height="400">
	<title>New Project</title>
	<style>
		.s0 { fill: #000000 } 
		.s1 { fill: #193a16 } 
		.s2 { fill: #3a2e16 } 
		.s3 { fill: #162988 } 
	</style>
	<g id="Background">
		<path id="Path 0" class="s0" d="m146.7 41.4c-2.1 1.3-5.4 4.5-7.5 7.2-2 2.7-6.8 8.3-10.7 12.5-3.8 4.1-8.6 9.9-10.5 12.8-1.9 2.9-6.3 8.5-9.8 12.4-3.5 4-11.1 14.2-16.8 22.7-5.8 8.5-15 21.3-20.5 28.5-5.5 7.2-11.2 14.3-12.8 16-1.5 1.7-5.2 6.6-8.3 11-3 4.4-8.4 12.3-11.9 17.5-3.6 5.2-9.3 12.4-12.8 16-3.5 3.6-7.6 8.3-9 10.5-1.8 2.9-2.5 5.4-2.5 9 0 3.4 0.7 6.4 2.4 9.5 1.6 2.7 4 5.3 6.5 6.7 2.7 1.5 5.7 2.3 9.3 2.3 2.9 0 6.6-0.7 8.5-1.6 1.7-1 6.9-5.6 11.3-10.3 4.5-4.7 11.5-13.5 15.6-19.6 4-6.1 9.5-14.2 12.2-18 2.7-3.8 6.6-8.8 8.6-11 2-2.2 5.4-6.5 7.5-9.5 2.2-3 5.9-8 8.4-11 2.6-3 5.5-6.8 6.7-8.5 1.1-1.7 5.7-8.4 10.2-15 4.4-6.6 10.8-15.2 14.1-19 3.3-3.8 8-9.9 10.4-13.5 2.5-3.6 5.2-7.2 6.1-8 0.9-0.8 1.8-1.3 2-1 0.2 0.3 1.9 2.5 3.8 5 1.8 2.5 5.1 7.2 7.2 10.5 2.2 3.3 6.1 8.3 8.7 11 2.6 2.8 6.5 7.2 8.6 9.9 2.1 2.7 6.3 7.7 9.4 11 3 3.4 8.2 9.3 11.5 13.2 3.2 4 8.4 10.2 11.4 14 3 3.7 10.6 12.6 16.8 19.8 7.1 8.3 12.9 13.9 15.5 15.4 2.3 1.2 5.6 2.2 7.2 2.2 1.7 0 4.6-0.4 6.5-0.9 1.9-0.5 5.2-2.7 7.3-4.8 2.3-2.2 4.3-5.4 4.9-7.8 0.5-2.2 0.7-5.8 0.4-8-0.3-2.2-1.9-5.9-3.6-8.2-1.6-2.4-5.9-7.5-9.5-11.3l-6.5-7c8.1-5.9 12-8.6 13.8-9.8l3.2-2.2c6 5.8 9 9.3 10.6 11.5 1.6 2.2 10.3 11.3 19.4 20.3 9.1 9 19.2 18.2 22.5 20.5 3.3 2.3 10.7 6.9 16.5 10.3 5.8 3.4 12.1 7.7 14 9.7 1.9 1.9 5.1 4.3 7 5.3 2 1 5.6 1.8 8.5 1.7 2.8 0 6.4-0.7 8-1.5 1.6-0.9 4.2-2.9 5.8-4.7 1.5-1.7 3.2-5 3.8-7.3 0.6-2.4 0.8-5.9 0.4-7.8-0.4-1.9-1.5-4.8-2.5-6.5-1-1.7-4.3-5.2-7.3-8-3-2.7-11.7-8.6-19.3-13-13.5-7.8-14.3-8.4-31.4-25.7-9.6-9.7-21.5-22-26.5-27.3-7-7.5-10.5-10.5-15.7-13.1-3.8-1.9-8.5-3.7-10.5-4-2.8-0.4-6.1 0.3-12.3 2.5-4.7 1.7-9.6 4.2-11 5.5-1.4 1.3-4.7 3.9-7.5 5.7-2.7 1.9-6.7 4.8-8.8 6.4l-3.9 3c-7.7-8.5-12.1-13.5-14.6-16.5-2.6-3-7.4-8.7-10.8-12.5-3.3-3.8-8.7-10.8-11.9-15.5-3.2-4.7-7.3-10.3-9.1-12.5-1.8-2.2-4.9-7.6-6.9-12-2-4.4-4.6-9.1-5.8-10.4-1.2-1.3-3.9-3.4-5.9-4.7-2.8-1.8-5.2-2.4-9-2.3-3.7 0-6.5 0.7-9.1 2.3z"/>
		<path id="Path 1" class="s1" d="m142.5 154.6c-2.2 0.8-4.8 2.2-5.9 3.2-1 0.9-2.9 3.3-4.1 5.2-1.3 1.9-5.8 7.6-10 12.5-4.2 4.9-11.4 12.8-15.9 17.5-4.6 4.7-9.7 10.8-11.4 13.5-1.7 2.8-4 5.9-5.3 7-1.2 1.1-3 3.8-4 6-1 2.2-1.9 5.3-1.9 7 0 1.7 0.7 5.4 1.5 8.3 1 3.5 2.8 6.5 5.5 9.2q4 4 7.5 4.5c1.9 0.3 3.5 0.9 3.5 1.5 0 0.6-1.3 3.6-2.9 6.8-1.5 3.1-3.8 8.8-5 12.7-2 6.3-2.1 7.6-1 13.5 0.7 3.6 1.8 7.7 2.5 9.3 1.3 2.5 1.1 3.1-2.6 9-2.2 3.4-5.1 9.5-6.5 13.5-1.8 5.2-2.3 8.2-1.9 11 0.4 2 1.2 4.8 1.9 6.2 0.7 1.4 2.6 3.7 4.4 5.3 1.7 1.5 5 3.2 7.3 3.8 2.4 0.6 10.6 1.1 18.3 1.1 9.1 0 15.4-0.5 18-1.3 3.1-1.1 4-2 4.5-4.4 0.3-1.6 1.5-4.4 2.6-6 1.2-1.6 3.8-4.1 6-5.4 2.9-1.9 5.3-2.5 9.4-2.5 4.1 0 6.5 0.6 9.4 2.5 2.2 1.3 5 4 6.3 5.9 1.3 1.9 2.3 4.5 2.3 5.8 0 1.9 0.6 2.2 3.7 2.4 2.1 0.1 4.7 0.1 5.8 0 1.1 0 6.6-0.5 12.3-1.1 5.6-0.6 11.4-1.7 12.9-2.5 1.6-0.7 4.7-3.5 7.1-6.2 2.4-2.7 4.8-6.7 5.3-8.9 0.6-2.2 0.8-5.6 0.4-7.5-0.4-1.9-1.3-4.6-2-6-0.6-1.4-2.9-3.9-4.9-5.5l-3.6-3c4.8-4.6 6.8-7.2 7.6-8.7 0.8-1.6 1.4-5 1.4-7.8 0-2.7-0.6-6.5-1.3-8.2-0.8-1.8-4.4-5.8-8-8.8-3.6-3-6.6-5.8-6.6-6.2-0.1-0.5 1.6-1.1 3.6-1.4 2.1-0.4 4.9-1.2 6.3-1.9 1.4-0.7 3.7-2.6 5.2-4.2 1.5-1.5 3.2-4 3.7-5.5 0.6-1.6 1.1-4.9 1.1-7.5 0.1-4-0.6-5.9-4.2-11.2-2.4-3.5-6.1-7.7-8.3-9.2-2.2-1.5-7.4-6.8-11.5-11.7-4.1-5-9.1-12.2-11-15.9-1.9-3.8-5.5-10.2-8-14.3-2.5-4-6.1-9.1-8-11.1-1.9-2-4.8-4-6.5-4.4-1.7-0.4-4.6-1.8-6.5-3.1-1.9-1.3-5.1-2.8-7-3.4-1.9-0.5-4.4-1-5.5-1-1.1 0.1-3.8 0.7-6 1.6z"/>
		<path id="Path 2" class="s2" d="m152.5 322.9c-1.7 0.4-4.3 1.6-6 2.7-1.7 1.2-4.1 3.8-5.4 6-1.7 2.7-2.5 5.4-2.5 8.9 0 3.1 0.7 6.5 2 9 1.1 2.2 3.6 5 5.5 6.2 1.9 1.3 4 2.7 4.7 3.3 0.6 0.5 3.5 1 6.2 1 2.8 0 5.6-0.5 6.3-1 0.6-0.6 2.7-2 4.6-3.3 1.9-1.2 4.4-4 5.5-6.2 1.3-2.5 2-5.9 2-9 0-3.5-0.8-6.2-2.5-8.9-1.3-2.2-4-5-5.9-6.2-1.9-1.2-5.3-2.4-7.5-2.7-2.2-0.3-5.3-0.2-7 0.2z"/>
		<path id="Path 3" class="s3" d="m276.5 199.9c-2.2 0.9-5.2 3.2-6.8 4.9-1.5 1.8-3.2 5.1-3.8 7.4-0.6 2.4-0.8 5.9-0.4 7.8 0.4 1.9 1.3 4.6 2.1 6 0.8 1.4 2.9 4.4 4.7 6.6 1.7 2.3 4.6 6 6.2 8.2 1.6 2.2 3.9 5.5 5 7.3 1.1 1.9 2.1 3.7 2.2 4.1 0.2 0.5-4.8 3.3-11 6.3-9.1 4.4-12.8 6.9-19.6 13.2-4.6 4.3-8.9 8.9-9.6 10.3-0.7 1.4-2 5.5-2.9 9.2-0.9 3.8-1.6 9.6-1.6 13 0 3.5 0.9 9.4 1.9 13.3 1 3.9 2.7 9.2 3.8 12 1 2.7 5.1 8.9 9.1 13.7 4.5 5.5 8.7 9.6 11.2 10.8 2.2 1.1 5.8 2 8 2 2.2 0 5.2-0.5 6.8-1.1 1.5-0.5 4-2.2 5.6-3.7 1.6-1.5 3.7-4.5 4.7-6.7 1-2.2 1.8-5.4 1.8-7 0-1.6-0.5-4.6-1.2-6.5-0.7-1.9-3.5-6.2-6.3-9.5-2.8-3.3-5.6-7.6-6.3-9.5-0.6-1.9-1.1-5.3-1.1-7.5 0-3.1 0.6-4.6 2.7-6.5 1.6-1.5 7.5-4.9 13.3-7.8 6.1-3 13.5-7.7 17.8-11.2 6.9-5.7 7.3-6.3 9.3-13.3 1.2-3.9 2.3-8.6 2.6-10.2 0.2-1.7-0.4-6.4-1.5-10.5-1.2-5-3.4-9.7-6.3-14.2-2.4-3.6-5.2-7.9-6.1-9.5-1-1.5-4.6-6.4-8.1-10.8-4.3-5.5-7.7-8.7-10.7-10.3-2.5-1.2-6.1-2.2-8-2.2-1.9 0-5.3 0.9-7.5 1.9z"/>
	</g>
</svg>